<?xml version="1.0" encoding="UTF-8"?><svg id="Layer_1" xmlns="http://www.w3.org/2000/svg" viewBox="0 0 278.35 278.35"><defs><style>.cls-1{fill:#f2ead6;}.cls-1,.cls-2{stroke:blue;stroke-miterlimit:10;stroke-width:2.13px;}.cls-2{fill:none;}</style></defs><g><rect class="cls-1" x="41.83" y="41.83" width="194.7" height="194.7" transform="translate(-57.65 139.17) rotate(-45)"/><rect class="cls-1" x="55.44" y="55.44" width="167.47" height="167.47" transform="translate(-57.2 152.49) rotate(-48.88)"/><rect class="cls-1" x="68.52" y="68.52" width="141.31" height="141.31" transform="translate(-55.1 170.74) rotate(-54.23)"/><rect class="cls-1" x="80.72" y="80.72" width="116.92" height="116.92" transform="translate(-49.15 196.39) rotate(-61.9)"/><rect class="cls-1" x="91.34" y="91.34" width="95.67" height="95.67" transform="translate(-34.17 232.41) rotate(-73.27)"/><rect class="cls-1" x="99.12" y="99.12" width="80.11" height="80.11"/></g><circle class="cls-1" cx="139.17" cy="139.17" r="72.39"/><g><g><line class="cls-2" x1="139.46" y1="202.32" x2="139.46" y2="184.07"/><line class="cls-2" x1="139.46" y1="94.28" x2="139.46" y2="76.03"/><line class="cls-2" x1="94.32" y1="137.15" x2="76.06" y2="137.15"/><line class="cls-2" x1="202.29" y1="137.15" x2="184.03" y2="137.15"/><line class="cls-2" x1="106.57" y1="170.04" x2="93.66" y2="182.95"/><line class="cls-2" x1="182.95" y1="93.66" x2="170.04" y2="106.57"/><line class="cls-2" x1="108.61" y1="106.29" x2="95.69" y2="93.38"/><line class="cls-2" x1="184.97" y1="182.65" x2="172.06" y2="169.74"/></g><g><line class="cls-2" x1="164.31" y1="197.12" x2="157.32" y2="180.25"/><line class="cls-2" x1="122.96" y1="97.3" x2="115.97" y2="80.43"/><line class="cls-2" x1="97.04" y1="154.72" x2="80.17" y2="161.71"/><line class="cls-2" x1="196.83" y1="113.38" x2="179.95" y2="120.37"/><line class="cls-2" x1="121.52" y1="180.47" x2="114.53" y2="197.33"/><line class="cls-2" x1="162.88" y1="80.62" x2="155.89" y2="97.5"/><line class="cls-2" x1="98.49" y1="120.17" x2="81.6" y2="113.18"/><line class="cls-2" x1="198.26" y1="161.5" x2="181.39" y2="154.52"/></g><path class="cls-2" d="M95.57,128.42c.02-.08,.04-.16,.06-.23,.05-.21,.11-.42,.17-.64,.03-.12,.06-.24,.1-.36,.05-.19,.1-.38,.16-.57,.07-.24,.14-.48,.22-.72,.08-.25,.16-.51,.24-.76,0-.01,0-.02,.01-.03,.1-.3,.2-.6,.31-.9s.21-.59,.33-.89c0-.01,0-.03,.01-.04,.16-.41,.32-.82,.49-1.23,.06-.14,.12-.29,.18-.43l.19-.43c.07-.17,.14-.34,.22-.5,.07-.17,.15-.33,.23-.49,.16-.33,.31-.65,.48-.98,.1-.21,.21-.43,.32-.64,0-.02,.02-.03,.02-.05,.11-.22,.23-.43,.35-.65,.12-.23,.24-.46,.38-.69,.12-.21,.23-.42,.35-.62,.16-.27,.31-.53,.47-.79,.16-.26,.32-.53,.49-.78,.19-.31,.39-.61,.6-.9,.2-.3,.4-.6,.61-.89,.11-.16,.22-.32,.34-.48m-15.18-10.14c-2.36,3.31-4.41,6.87-6.11,10.61-1.68,3.71-3.01,7.62-3.95,11.67"/><g><g><g><line class="cls-2" x1="139.46" y1="206.95" x2="139.46" y2="202.32"/><line class="cls-2" x1="139.46" y1="76.03" x2="139.46" y2="71.4"/><line class="cls-2" x1="206.93" y1="137.15" x2="202.29" y2="137.15"/><line class="cls-2" x1="76.06" y1="137.15" x2="71.42" y2="137.15"/><line class="cls-2" x1="93.66" y1="182.95" x2="90.38" y2="186.23"/><line class="cls-2" x1="186.23" y1="90.38" x2="182.95" y2="93.66"/><line class="cls-2" x1="95.69" y1="93.38" x2="92.41" y2="90.1"/><line class="cls-2" x1="188.25" y1="185.93" x2="184.97" y2="182.65"/></g><g><line class="cls-2" x1="166.08" y1="201.4" x2="164.31" y2="197.12"/><line class="cls-2" x1="115.97" y1="80.43" x2="114.19" y2="76.15"/><line class="cls-2" x1="80.17" y1="161.71" x2="75.88" y2="163.48"/><line class="cls-2" x1="201.11" y1="111.61" x2="196.83" y2="113.38"/><line class="cls-2" x1="114.53" y1="197.33" x2="112.76" y2="201.62"/><line class="cls-2" x1="164.65" y1="76.34" x2="162.88" y2="80.62"/><polyline class="cls-2" points="98.49 120.17 81.6 113.18 77.32 111.41"/><line class="cls-2" x1="202.55" y1="163.28" x2="198.26" y2="161.5"/></g></g><g><line class="cls-2" x1="153.07" y1="205.53" x2="152.16" y2="200.98"/><line class="cls-2" x1="127.52" y1="77.1" x2="126.61" y2="72.55"/><line class="cls-2" x1="76.88" y1="149.6" x2="72.33" y2="150.5"/><line class="cls-2" x1="205.26" y1="124.06" x2="200.71" y2="124.96"/><line class="cls-2" x1="103.35" y1="191.19" x2="100.78" y2="195.04"/><line class="cls-2" x1="176.1" y1="82.32" x2="173.52" y2="86.17"/><line class="cls-2" x1="196.55" y1="175.29" x2="192.69" y2="172.71"/><line class="cls-2" x1="87.71" y1="102.56" x2="83.86" y2="99.99"/></g><g><line class="cls-2" x1="177.97" y1="194.77" x2="175.39" y2="190.92"/><line class="cls-2" x1="105.23" y1="85.91" x2="102.66" y2="82.06"/><line class="cls-2" x1="85.83" y1="172.98" x2="81.97" y2="175.56"/><line class="cls-2" x1="194.68" y1="100.25" x2="190.82" y2="102.83"/><line class="cls-2" x1="126.74" y1="201.09" x2="125.84" y2="205.64"/><line class="cls-2" x1="152.29" y1="72.66" x2="151.39" y2="77.21"/><line class="cls-2" x1="77.66" y1="124.85" x2="73.11" y2="123.95"/><line class="cls-2" x1="206.03" y1="150.39" x2="201.48" y2="149.49"/></g></g><path class="cls-2" d="M206.93,137.15c0-.05,0-.1,0-.15-.14-4.43-.71-8.76-1.66-12.94-.98-4.32-2.38-8.49-4.15-12.45-.02-.04-.03-.08-.05-.12-1.77-3.96-3.92-7.72-6.38-11.23-2.5-3.56-5.33-6.87-8.45-9.87-.02-.02-.04-.04-.06-.06-3.09-2.97-6.46-5.65-10.07-8-3.59-2.34-7.42-4.35-11.44-5.98-.01,0-.03-.01-.04-.02-3.93-1.59-8.06-2.83-12.32-3.66-4.15-.81-8.42-1.25-12.8-1.27h-.02c-.1,0-.19,0-.29,0-4.29,0-8.49,.4-12.56,1.16-4.28,.8-8.41,2-12.35,3.56-.02,.01-.05,.02-.07,.03-4.05,1.6-7.91,3.59-11.53,5.92-3.64,2.32-7.04,4.99-10.16,7.95-.03,.03-.06,.06-.09,.08-3.16,3.01-6.03,6.33-8.56,9.9-2.5,3.52-4.68,7.3-6.48,11.28-.02,.05-.04,.09-.06,.13-1.8,3.99-3.22,8.19-4.21,12.54-.97,4.21-1.55,8.57-1.69,13.05,0,.05,0,.1,0,.15-.02,.67-.03,1.35-.03,2.03,0,3.86,.32,7.65,.94,11.33,.75,4.45,1.93,8.75,3.5,12.87,.02,.04,.03,.08,.05,.12,1.63,4.25,3.68,8.29,6.09,12.08,2.42,3.81,5.23,7.36,8.34,10.6,.02,.02,.04,.04,.06,.06,3.16,3.27,6.64,6.23,10.4,8.81,3.73,2.57,7.72,4.77,11.94,6.56,.01,0,.02,.01,.03,.01,4.17,1.76,8.54,3.12,13.08,4.03,4.31,.86,8.77,1.32,13.34,1.32,.1,0,.19,0,.29,0h.02c4.66-.02,9.2-.51,13.58-1.43,4.52-.94,8.88-2.33,13.01-4.13,.02-.01,.05-.02,.07-.03,4.18-1.81,8.13-4.03,11.82-6.6,3.72-2.6,7.16-5.56,10.28-8.84,.02-.03,.05-.06,.08-.09,3.06-3.23,5.82-6.77,8.22-10.56,2.38-3.77,4.39-7.79,6-12.01,.02-.05,.03-.09,.05-.14,1.54-4.08,2.7-8.34,3.43-12.75,.61-3.65,.93-7.4,.93-11.22,0-.68-.01-1.36-.03-2.03Zm-111.36-8.73c.02-.08,.04-.16,.06-.23,.05-.21,.11-.42,.17-.64,.03-.12,.06-.24,.1-.36,.05-.19,.1-.38,.16-.57,.07-.24,.14-.48,.22-.72,.08-.25,.16-.51,.24-.76,0-.01,0-.02,.01-.03,.1-.3,.2-.6,.31-.9s.21-.59,.33-.89c0-.01,0-.03,.01-.04,.16-.41,.32-.82,.49-1.23,.06-.14,.12-.29,.18-.43l.19-.43c.07-.17,.14-.34,.22-.5,.07-.17,.15-.33,.23-.49,.16-.33,.31-.65,.48-.98,.1-.21,.21-.43,.32-.64,0-.02,.02-.03,.02-.05,.11-.22,.23-.43,.35-.65,.12-.23,.24-.46,.38-.69,.12-.21,.23-.42,.35-.62,.16-.27,.31-.53,.47-.79,.16-.26,.32-.53,.49-.78,.19-.31,.39-.61,.6-.9,.2-.3,.4-.6,.61-.89,.11-.16,.22-.32,.34-.48m-15.18-10.14c2.36-3.32,5.04-6.39,7.98-9.19,2.93-2.78,6.12-5.28,9.54-7.46,3.37-2.16,6.96-4,10.74-5.49,3.69-1.46,7.55-2.58,11.55-3.33,3.78-.71,7.68-1.08,11.66-1.08,.1,0,.19,0,.29,0,4.07,.02,8.06,.42,11.92,1.18,3.98,.78,7.82,1.93,11.49,3.42,3.74,1.52,7.31,3.38,10.65,5.55,3.38,2.2,6.54,4.7,9.43,7.49,2.9,2.79,5.54,5.86,7.87,9.17,2.32,3.3,4.34,6.83,6.01,10.56,1.65,3.69,2.96,7.56,3.88,11.58,.9,3.93,1.44,8.01,1.58,12.18,.02,.67,.03,1.35,.03,2.03,0,3.51-.28,6.95-.84,10.31-.68,4.16-1.77,8.17-3.22,12.02-1.49,3.94-3.36,7.69-5.57,11.21-2.24,3.57-4.83,6.9-7.72,9.94-2.91,3.06-6.12,5.83-9.58,8.26-3.46,2.42-7.17,4.5-11.08,6.2-3.86,1.68-7.93,2.98-12.14,3.86-4.1,.86-8.35,1.32-12.7,1.33-.1,0-.19,0-.29,0-4.25,0-8.41-.42-12.43-1.23-4.24-.84-8.33-2.11-12.21-3.76-3.95-1.67-7.69-3.74-11.18-6.15-3.51-2.42-6.75-5.18-9.69-8.24-2.93-3.04-5.56-6.38-7.83-9.96-2.24-3.53-4.15-7.31-5.66-11.27-1.48-3.87-2.59-7.92-3.28-12.11-.57-3.39-.86-6.87-.86-10.42,0-.68,.01-1.36,.03-2.03,.13-4.22,.68-8.33,1.6-12.29"/><circle class="cls-2" cx="139.17" cy="139.17" r="44.9"/><circle class="cls-2" cx="139.17" cy="139.17" r="35.96"/><circle class="cls-2" cx="139.17" cy="139.17" r="27.15"/><circle class="cls-2" cx="139.17" cy="139.17" r="18.65"/><circle class="cls-2" cx="139.17" cy="139.17" r="11.22"/><polyline class="cls-2" points="186.3 90.45 186.3 90.46 183.02 93.73 170.12 106.64 163.79 112.96 157.56 119.2 151.55 125.21 146.26 130.49 139.35 137.41 136.22 140.54 136.01 140.74"/><polyline class="cls-2" points="142.77 140.54 136.22 140.54 136.22 133.98"/></g></svg>